{
  "accessors": [
    {
      "bufferView": 2,
      "componentType": 5126,
      "count": 1600,
      "max": [
        2.3897421360015869,
        2.2446682453155518,
        0.92004036903381348
      ],
      "min": [
        -2.2910876274108887,
        -2.2515079975128174,
        -1.1027960777282715
      ],
      "type": "VEC3"
    },
    {
      "bufferView": 2,
      "byteOffset": 19200,
      "componentType": 5126,
      "count": 1600,
      "max": [
        0.85848128795623779,
        0.81703907251358032,
        0.99956488609313965
      ],
      "min": [
        -0.8889394998550415,
        -0.89549422264099121,
        0.35580518841743469
      ],
      "type": "VEC3"
    },
    {
      "bufferView": 3,
      "componentType": 5126,
      "count": 1600,
      "max": [
        0.99820089340209961,
        0.96067500114440918,
        0.66311395168304443,
        1
      ],
      "min": [
        -0.99213212728500366,
        -0.96580451726913452,
        -0.6216779351234436,
        1
      ],
      "type": "VEC4"
    },
    {
      "bufferView": 1,
      "componentType": 5126,
      "count": 1600,
      "max": [
        0.87846958637237549,
        0.95519363880157471
      ],
      "min": [
        0.048602491617202759,
        0.050015509128570557
      ],
      "type": "VEC2"
    },
    {
      "bufferView": 0,
      "componentType": 5125,
      "count": 2400,
      "max": [
        1599
      ],
      "min": [
        0
      ],
      "type": "SCALAR"
    }
  ],
  "asset": {
    "extras": {
      "author": "jhb93 (https://sketchfab.com/jhb93)",
      "license": "CC-BY-4.0 (http://creativecommons.org/licenses/by/4.0/)",
      "source": "https://sketchfab.com/models/9cb753e6285d4fb19b41f834aa7dd9ab",
      "title": "Fern Model"
    },
    "generator": "Sketchfab-3.22.5",
    "version": "2.0"
  },
  "bufferViews": [
    {
      "buffer": 0,
      "byteLength": 9600,
      "byteOffset": 0,
      "name": "floatBufferViews",
      "target": 34963
    },
    {
      "buffer": 0,
      "byteLength": 12800,
      "byteOffset": 9600,
      "byteStride": 8,
      "name": "floatBufferViews",
      "target": 34962
    },
    {
      "buffer": 0,
      "byteLength": 38400,
      "byteOffset": 22400,
      "byteStride": 12,
      "name": "floatBufferViews",
      "target": 34962
    },
    {
      "buffer": 0,
      "byteLength": 25600,
      "byteOffset": 60800,
      "byteStride": 16,
      "name": "floatBufferViews",
      "target": 34962
    }
  ],
  "buffers": [
    {
      "byteLength": 86400,
      "uri": "scene.bin"
    }
  ],
  "images": [
    {
      "uri": "textures/Fern_Leaf_baseColor.png"
    }
  ],
  "materials": [
    {
      "alphaMode": "BLEND",
      "doubleSided": true,
      "emissiveFactor": [
        0,
        0,
        0
      ],
      "name": "Fern_Leaf",
      "pbrMetallicRoughness": {
        "baseColorFactor": [
          0.36211244450000002,
          0.36211244450000002,
          0.36211244450000002,
          1
        ],
        "baseColorTexture": {
          "index": 0,
          "texCoord": 0
        },
        "metallicFactor": 0,
        "roughnessFactor": 0.95770514949999996
      }
    }
  ],
  "meshes": [
    {
      "name": "Plane.002_Fern Leaf_0",
      "primitives": [
        {
          "attributes": {
            "NORMAL": 1,
            "POSITION": 0,
            "TANGENT": 2,
            "TEXCOORD_0": 3
          },
          "indices": 4,
          "material": 0,
          "mode": 4
        }
      ]
    }
  ],
  "nodes": [
    {
      "children": [
        1
      ],
      "name": "RootNode (gltf orientation matrix)",
      "rotation": [
        -0.70710678118654746,
        -0,
        -0,
        0.70710678118654757
      ]
    },
    {
      "children": [
        2
      ],
      "name": "RootNode (model correction matrix)"
    },
    {
      "children": [
        3
      ],
      "matrix": [
        1,
        0,
        0,
        0,
        0,
        0,
        1,
        0,
        0,
        -1,
        0,
        0,
        0,
        0,
        0,
        1
      ],
      "name": "fern.fbx"
    },
    {
      "children": [
        4,
        6,
        9
      ],
      "name": "RootNode"
    },
    {
      "children": [
        5
      ],
      "matrix": [
        75.841249392911237,
        2.0437083855643303,
        -65.14543841710649,
        0,
        -65.173076000546473,
        1.2143625075553997,
        -75.835328272555131,
        0,
        -0.75875118360651561,
        99.971746533591485,
        2.252935317242482,
        0,
        15.216684341430664,
        39.979732513427734,
        -4.7370491027832031,
        1
      ],
      "name": "Plane.002"
    },
    {
      "mesh": 0,
      "name": "Plane.002_Fern Leaf_0"
    },
    {
      "children": [
        7
      ],
      "matrix": [
        -29.08647719990347,
        -5.5189064575668629,
        -95.517119101714371,
        0,
        56.639309131094492,
        79.467234285632031,
        -21.839123978419661,
        0,
        77.110087759933748,
        -60.452463565620441,
        -19.988346967737169,
        0,
        252.61332702636719,
        367.98095703125,
        -221.82707214355469,
        1
      ],
      "name": "Lamp"
    },
    {
      "children": [
        8
      ],
      "matrix": [
        1,
        0,
        0,
        0,
        0,
        2.2204460492503131e-16,
        1,
        0,
        0,
        -1,
        2.2204460492503131e-16,
        0,
        0,
        0,
        0,
        1
      ],
      "name": ""
    },
    {
      "name": ""
    },
    {
      "children": [
        10
      ],
      "matrix": [
        -42.788072808644984,
        -53.808578006102614,
        72.621055887967273,
        0,
        -32.082466472783217,
        84.157567169687539,
        43.453679762021466,
        0,
        -84.497914612842962,
        -4.7056334138177709,
        -53.27251604846937,
        0,
        782.60772705078125,
        745.18707275390625,
        -1024.6168212890625,
        1
      ],
      "name": "Camera"
    },
    {
      "name": ""
    }
  ],
  "samplers": [
    {
      "magFilter": 9729,
      "minFilter": 9987,
      "wrapS": 10497,
      "wrapT": 10497
    }
  ],
  "scene": 0,
  "scenes": [
    {
      "name": "OSG_Scene",
      "nodes": [
        0
      ]
    }
  ],
  "textures": [
    {
      "sampler": 0,
      "source": 0
    }
  ]
}

