{
  "accessors": [
    {
      "bufferView": 2,
      "componentType": 5126,
      "count": 937,
      "max": [
        0.21564200520515442,
        0.21564200520515442,
        0.61856460571289062
      ],
      "min": [
        -0.21564200520515442,
        -0.21564200520515442,
        -0.00053441524505615234
      ],
      "type": "VEC3"
    },
    {
      "bufferView": 2,
      "byteOffset": 11244,
      "componentType": 5126,
      "count": 937,
      "max": [
        0.99955272674560547,
        0.99955272674560547,
        1
      ],
      "min": [
        -0.99955272674560547,
        -0.99955272674560547,
        -1
      ],
      "type": "VEC3"
    },
    {
      "bufferView": 3,
      "componentType": 5126,
      "count": 937,
      "max": [
        1,
        0.99947595596313477,
        0.99575036764144897,
        1
      ],
      "min": [
        -0.99924331903457642,
        -0.99999982118606567,
        -0.99589413404464722,
        -1
      ],
      "type": "VEC4"
    },
    {
      "bufferView": 1,
      "componentType": 5126,
      "count": 937,
      "max": [
        0.91767507791519165,
        0.72723191976547241
      ],
      "min": [
        0.038574911653995514,
        -0.096161805093288422
      ],
      "type": "VEC2"
    },
    {
      "bufferView": 1,
      "byteOffset": 7496,
      "componentType": 5126,
      "count": 937,
      "max": [
        0.91767507791519165,
        0.72723191976547241
      ],
      "min": [
        0.038574911653995514,
        -0.096161805093288422
      ],
      "type": "VEC2"
    },
    {
      "bufferView": 0,
      "componentType": 5125,
      "count": 4800,
      "max": [
        936
      ],
      "min": [
        0
      ],
      "type": "SCALAR"
    }
  ],
  "asset": {
    "extras": {
      "author": "Opus Poly (https://sketchfab.com/OpusPoly)",
      "license": "CC-BY-4.0 (http://creativecommons.org/licenses/by/4.0/)",
      "source": "https://sketchfab.com/3d-models/gauloise-4-amphora-a58c123e2c6d4184973d1eafbdb4e109",
      "title": "Gauloise 4 Amphora"
    },
    "generator": "Sketchfab-4.81.0",
    "version": "2.0"
  },
  "bufferViews": [
    {
      "buffer": 0,
      "byteLength": 19200,
      "byteOffset": 0,
      "name": "floatBufferViews",
      "target": 34963
    },
    {
      "buffer": 0,
      "byteLength": 14992,
      "byteOffset": 19200,
      "byteStride": 8,
      "name": "floatBufferViews",
      "target": 34962
    },
    {
      "buffer": 0,
      "byteLength": 22488,
      "byteOffset": 34192,
      "byteStride": 12,
      "name": "floatBufferViews",
      "target": 34962
    },
    {
      "buffer": 0,
      "byteLength": 14992,
      "byteOffset": 56680,
      "byteStride": 16,
      "name": "floatBufferViews",
      "target": 34962
    }
  ],
  "buffers": [
    {
      "byteLength": 71672,
      "uri": "scene.bin"
    }
  ],
  "images": [
    {
      "uri": "textures/Amphora_01_metallicRoughness.png"
    },
    {
      "uri": "textures/Amphora_01_normal.png"
    },
    {
      "uri": "textures/Amphora_01_baseColor.png"
    }
  ],
  "materials": [
    {
      "doubleSided": true,
      "name": "Amphora_01",
      "normalTexture": {
        "index": 1,
        "scale": 1,
        "texCoord": 0
      },
      "occlusionTexture": {
        "index": 0,
        "strength": 1,
        "texCoord": 0
      },
      "pbrMetallicRoughness": {
        "baseColorFactor": [
          1,
          1,
          1,
          1
        ],
        "baseColorTexture": {
          "index": 2,
          "texCoord": 0
        },
        "metallicFactor": 1,
        "metallicRoughnessTexture": {
          "index": 0,
          "texCoord": 0
        },
        "roughnessFactor": 1
      }
    }
  ],
  "meshes": [
    {
      "name": "GAU4_Empty_Amphora_01_0",
      "primitives": [
        {
          "attributes": {
            "NORMAL": 1,
            "POSITION": 0,
            "TANGENT": 2,
            "TEXCOORD_0": 3,
            "TEXCOORD_1": 4
          },
          "indices": 5,
          "material": 0,
          "mode": 4
        }
      ]
    }
  ],
  "nodes": [
    {
      "children": [
        1
      ],
      "name": "RootNode (gltf orientation matrix)",
      "rotation": [
        -0.70710678118654746,
        -0,
        -0,
        0.70710678118654757
      ]
    },
    {
      "children": [
        2
      ],
      "name": "RootNode (model correction matrix)"
    },
    {
      "children": [
        3
      ],
      "matrix": [
        1,
        0,
        0,
        0,
        0,
        0,
        1,
        0,
        0,
        -1,
        0,
        0,
        0,
        0,
        0,
        1
      ],
      "name": "280f1292b45a4881a3c3299cf92e3d00.fbx"
    },
    {
      "children": [
        4
      ],
      "name": "RootNode"
    },
    {
      "children": [
        5
      ],
      "matrix": [
        100,
        0,
        0,
        0,
        0,
        -1.6292067939183141e-05,
        -99.999999999998678,
        0,
        0,
        99.999999999998678,
        -1.6292067939183141e-05,
        0,
        0,
        2.9802322387695312e-06,
        -1.1795009413617663e-10,
        1
      ],
      "name": "GAU4_Empty"
    },
    {
      "mesh": 0,
      "name": "GAU4_Empty_Amphora_01_0"
    }
  ],
  "samplers": [
    {
      "magFilter": 9729,
      "minFilter": 9987,
      "wrapS": 10497,
      "wrapT": 10497
    }
  ],
  "scene": 0,
  "scenes": [
    {
      "name": "OSG_Scene",
      "nodes": [
        0
      ]
    }
  ],
  "textures": [
    {
      "sampler": 0,
      "source": 0
    },
    {
      "sampler": 0,
      "source": 1
    },
    {
      "sampler": 0,
      "source": 2
    }
  ]
}

