{
  "accessors": [
    {
      "bufferView": 2,
      "componentType": 5126,
      "count": 1587,
      "max": [
        0.96048098802566528,
        1,
        0.68234801292419434
      ],
      "min": [
        -0.9604799747467041,
        -1,
        -0.68234801292419434
      ],
      "type": "VEC3"
    },
    {
      "bufferView": 2,
      "byteOffset": 19044,
      "componentType": 5126,
      "count": 1587,
      "max": [
        0.9996984601020813,
        0.99996954202651978,
        0.99879747629165649
      ],
      "min": [
        -0.99939334392547607,
        -0.99984061717987061,
        -0.99904513359069824
      ],
      "type": "VEC3"
    },
    {
      "bufferView": 3,
      "componentType": 5126,
      "count": 1587,
      "max": [
        0.99674320220947266,
        0.99982935190200806,
        0.99988740682601929,
        1
      ],
      "min": [
        -0.99852508306503296,
        -0.99996805191040039,
        -0.99612748622894287,
        -1
      ],
      "type": "VEC4"
    },
    {
      "bufferView": 1,
      "componentType": 5126,
      "count": 1587,
      "max": [
        0.9998360276222229,
        0.85335999727249146
      ],
      "min": [
        0.00016373400285374373,
        0.00016373400285374373
      ],
      "type": "VEC2"
    },
    {
      "bufferView": 0,
      "componentType": 5125,
      "count": 8412,
      "max": [
        1586
      ],
      "min": [
        0
      ],
      "type": "SCALAR"
    }
  ],
  "asset": {
    "extras": {
      "author": "Daniel Gryningstjerna (https://sketchfab.com/dangry)",
      "license": "CC-BY-4.0 (http://creativecommons.org/licenses/by/4.0/)",
      "source": "https://sketchfab.com/3d-models/clay-pot-low-poly-game-ready-f68f4306256f47cf8c3bc45748edf8b0",
      "title": "Clay Pot low-poly (game-ready)"
    },
    "generator": "Sketchfab-8.83.0",
    "version": "2.0"
  },
  "bufferViews": [
    {
      "buffer": 0,
      "byteLength": 33648,
      "byteOffset": 0,
      "name": "floatBufferViews",
      "target": 34963
    },
    {
      "buffer": 0,
      "byteLength": 12696,
      "byteOffset": 33648,
      "byteStride": 8,
      "name": "floatBufferViews",
      "target": 34962
    },
    {
      "buffer": 0,
      "byteLength": 38088,
      "byteOffset": 46344,
      "byteStride": 12,
      "name": "floatBufferViews",
      "target": 34962
    },
    {
      "buffer": 0,
      "byteLength": 25392,
      "byteOffset": 84432,
      "byteStride": 16,
      "name": "floatBufferViews",
      "target": 34962
    }
  ],
  "buffers": [
    {
      "byteLength": 109824,
      "uri": "scene.bin"
    }
  ],
  "images": [
    {
      "uri": "textures/Cylinder1_baseColor.jpeg"
    },
    {
      "uri": "textures/Cylinder1_metallicRoughness.png"
    },
    {
      "uri": "textures/Cylinder1_normal.png"
    }
  ],
  "materials": [
    {
      "doubleSided": true,
      "name": "Cylinder1",
      "normalTexture": {
        "index": 2,
        "scale": 1,
        "texCoord": 0
      },
      "occlusionTexture": {
        "index": 1,
        "strength": 1,
        "texCoord": 0
      },
      "pbrMetallicRoughness": {
        "baseColorFactor": [
          1,
          1,
          1,
          1
        ],
        "baseColorTexture": {
          "index": 0,
          "texCoord": 0
        },
        "metallicFactor": 1,
        "metallicRoughnessTexture": {
          "index": 1,
          "texCoord": 0
        },
        "roughnessFactor": 1
      }
    }
  ],
  "meshes": [
    {
      "name": "defaultMaterial",
      "primitives": [
        {
          "attributes": {
            "NORMAL": 1,
            "POSITION": 0,
            "TANGENT": 2,
            "TEXCOORD_0": 3
          },
          "indices": 4,
          "material": 0,
          "mode": 4
        }
      ]
    }
  ],
  "nodes": [
    {
      "children": [
        1
      ],
      "name": "RootNode (gltf orientation matrix)",
      "rotation": [
        -0.70710678118654746,
        -0,
        -0,
        0.70710678118654757
      ]
    },
    {
      "children": [
        2
      ],
      "name": "RootNode (model correction matrix)"
    },
    {
      "children": [
        3
      ],
      "matrix": [
        1,
        0,
        0,
        0,
        0,
        -4.3711390063094768e-08,
        0.999999999999999,
        0,
        0,
        -0.999999999999999,
        -4.3711390063094768e-08,
        0,
        0,
        0,
        0,
        1
      ],
      "name": "Collada visual scene group"
    },
    {
      "children": [
        4
      ],
      "name": "Cylinder1"
    },
    {
      "mesh": 0,
      "name": "defaultMaterial"
    }
  ],
  "samplers": [
    {
      "magFilter": 9729,
      "minFilter": 9987,
      "wrapS": 10497,
      "wrapT": 10497
    }
  ],
  "scene": 0,
  "scenes": [
    {
      "name": "OSG_Scene",
      "nodes": [
        0
      ]
    }
  ],
  "textures": [
    {
      "sampler": 0,
      "source": 0
    },
    {
      "sampler": 0,
      "source": 1
    },
    {
      "sampler": 0,
      "source": 2
    }
  ]
}

